name Walk2.mot
datacolumns 19
datarows 27
range 3.09500000 3.22500000
endheader

                time	   L_ground_force_vx	   L_ground_force_vy	   L_ground_force_vz	   L_ground_force_px	   L_ground_force_py	   L_ground_force_pz	   R_ground_force_vx	   R_ground_force_vy	   R_ground_force_vz	   R_ground_force_px	   R_ground_force_py	   R_ground_force_pz	   L_ground_torque_x	   L_ground_torque_y	   L_ground_torque_z	   R_ground_torque_x	   R_ground_torque_y	   R_ground_torque_z	
          3.09500000	          1.76276471	         40.48183979	         -1.12323367	          0.00428112	          0.00000000	          0.00111008	          0.00000000	          0.00000000	          0.00000000	          0.00000000	          0.00000000	          0.00000000	          0.00000000	         -0.02497079	          0.00000000	          0.00000000	          0.00000000	          0.00000000	
          3.10000000	          2.90758501	         69.28710680	         -1.48405007	         -0.09479526	          0.00000000	          0.00264848	          0.00000000	          0.00000000	          0.00000000	          0.00000000	          0.00000000	          0.00000000	          0.00000000	         -0.04124675	          0.00000000	          0.00000000	          0.00000000	          0.00000000	
          3.10500000	          2.60174569	        100.26181829	         -2.05490808	         -0.18598181	          0.00000000	          0.00420635	          0.00000000	          0.00000000	          0.00000000	          0.00000000	          0.00000000	          0.00000000	          0.00000000	         -0.04172696	          0.00000000	          0.00000000	          0.00000000	          0.00000000	
          3.11000000	          0.45927245	        132.06305172	         -2.83935189	         -0.26471310	          0.00000000	          0.00571339	          0.00000000	          0.00000000	          0.00000000	          0.00000000	          0.00000000	          0.00000000	          0.00000000	         -0.02181753	          0.00000000	          0.00000000	          0.00000000	          0.00000000	
          3.11500000	         -3.64337506	        163.60477674	         -3.78890677	         -0.32907004	          0.00000000	          0.00711202	          0.00000000	          0.00000000	          0.00000000	          0.00000000	          0.00000000	          0.00000000	          0.00000000	          0.02098260	          0.00000000	          0.00000000	          0.00000000	          0.00000000	
          3.12000000	         -9.47582561	        194.34300620	         -4.80617499	         -0.37897902	          0.00000000	          0.00835439	         -0.00000000	          0.00000000	          0.00000000	          0.00000000	          0.00000000	          0.00000000	          0.00000000	          0.08633085	          0.00000000	          0.00000000	          0.00000000	          0.00000000	
          3.12500000	        -16.50232047	        224.05402840	         -5.77793384	         -0.41556238	          0.00000000	          0.00940725	         -0.00000000	          0.00000000	          0.00000000	          0.00000000	          0.00000000	          0.00000000	          0.00000000	          0.17044660	          0.00000000	          0.00000000	          0.00000000	          0.00000000	
          3.13000000	        -23.98200824	        252.55545271	         -6.60513880	         -0.44062267	          0.00000000	          0.01025081	         -0.00000000	          0.00000000	          0.00000000	          0.00000000	          0.00000000	          0.00000000	          0.00000000	          0.26588738	          0.00000000	          0.00000000	          0.00000000	          0.00000000	
          3.13500000	        -31.08380427	        279.61386115	         -7.21649760	         -0.45624913	          0.00000000	          0.01087919	         -0.00000000	          0.00000000	          0.00000000	          0.00000000	          0.00000000	          0.00000000	          0.00000000	          0.36204441	          0.00000000	          0.00000000	          0.00000000	          0.00000000	
          3.14000000	        -37.05555032	        304.96562257	         -7.56437377	         -0.46453733	          0.00000000	          0.01129919	         -0.00000000	          0.00000000	         -0.00000000	         -0.00000000	          0.00000000	         -0.00000000	          0.00000000	          0.44658901	          0.00000000	          0.00000000	          0.00000000	          0.00000000	
          3.14500000	        -41.43390249	        328.34134911	         -7.60157358	         -0.46740548	          0.00000000	          0.01152432	         -0.00000000	         -0.00000000	         -0.00000000	         -0.00000000	          0.00000000	         -0.00000000	          0.00000000	          0.50812088	          0.00000000	          0.00000000	          0.00000000	          0.00000000	
          3.15000000	        -44.17979429	        349.47329346	         -7.25546024	         -0.46649324	          0.00000000	          0.01157166	         -0.00000000	         -0.00000000	         -0.00000000	         -0.00000000	          0.00000000	         -0.00000000	          0.00000000	          0.53865305	          0.00000000	          0.00000000	          0.00000000	          0.00000000	
          3.15500000	        -45.61719341	        368.14445123	         -6.43774331	         -0.46312493	          0.00000000	          0.01145972	         -0.00000000	         -0.00000001	         -0.00000000	         -0.00000000	          0.00000000	         -0.00000000	          0.00000000	          0.53466245	          0.00000000	          0.00000000	          0.00000000	          0.00000000	
          3.16000000	        -46.21600778	        384.30477846	         -5.08170826	         -0.45831739	          0.00000000	          0.01120480	         -0.00000000	         -0.00000001	         -0.00000000	         -0.00000000	          0.00000000	         -0.00000000	          0.00000000	          0.49658654	          0.00000000	          0.00000000	          0.00000000	          0.00000000	
          3.16500000	        -46.39259250	        398.17630161	         -3.16064111	         -0.45281137	          0.00000000	          0.01081845	         -0.00000000	         -0.00000002	         -0.00000000	         -0.00000000	          0.00000000	         -0.00000000	          0.00000000	          0.42801664	          0.00000000	          0.00000000	         -0.00000000	          0.00000000	
          3.17000000	        -46.43184254	        410.26933866	         -0.68632532	         -0.44711493	          0.00000000	          0.01031110	         -0.00000000	         -0.00000002	         -0.00000000	         -0.00000000	          0.00000000	         -0.00000000	          0.00000000	          0.33539537	          0.00000000	          0.00000000	         -0.00000000	          0.00000000	
          3.17500000	        -46.51496193	        421.29729571	          2.29096828	         -0.44155000	          0.00000000	          0.00969698	         -0.00000000	         -0.00000003	         -0.00000000	         -0.00000000	          0.00000000	         -0.00000000	          0.00000000	          0.22797295	          0.00000000	          0.00000000	         -0.00000000	          0.00000000	
          3.18000000	        -46.78117054	        432.01978840	          5.67564795	         -0.43630055	          0.00000000	          0.00899542	         -0.00000000	         -0.00000004	         -0.00000000	         -0.00000000	          0.00000000	         -0.00000000	          0.00000000	          0.11748054	          0.00000000	          0.00000000	         -0.00000000	          0.00000000	
          3.18500000	        -47.36255608	        443.08632670	          9.32227864	         -0.43145714	          0.00000000	          0.00823387	         -0.00000000	         -0.00000005	         -0.00000001	         -0.00000000	          0.00000000	         -0.00000000	          0.00000000	          0.01762433	          0.00000000	          0.00000000	         -0.00000000	          0.00000000	
          3.19000000	        -48.36991254	        454.92741873	         13.04489431	         -0.42705931	          0.00000000	          0.00744945	          0.00000000	         -0.00000006	         -0.00000001	         -0.00000000	          0.00000000	         -0.00000000	          0.00000000	         -0.05747414	          0.00000000	          0.00000000	         -0.00000000	          0.00000000	
          3.19500000	        -49.84140371	        467.77346472	         16.65066514	         -0.42311469	          0.00000000	          0.00668246	          0.00000000	         -0.00000006	         -0.00000001	         -0.00000000	          0.00000000	         -0.00000000	          0.00000000	         -0.09691012	          0.00000000	          0.00000000	         -0.00000000	          0.00000000	
          3.20000000	        -51.71181012	        481.80667014	         19.98999846	         -0.41960338	          0.00000000	          0.00596591	          0.00000000	         -0.00000006	         -0.00000001	         -0.00000000	          0.00000000	         -0.00000000	          0.00000000	         -0.09582361	          0.00000000	          0.00000000	         -0.00000000	          0.00000000	
          3.20500000	        -53.85558867	        497.24093594	         22.98565092	         -0.41649319	          0.00000000	          0.00532172	          0.00000001	         -0.00000005	         -0.00000000	         -0.00000000	          0.00000000	         -0.00000000	          0.00000000	         -0.05561749	          0.00000000	          0.00000000	         -0.00000000	          0.00000000	
          3.21000000	        -56.15366851	        514.25214859	         25.61874115	         -0.41374811	          0.00000000	          0.00476016	          0.00000001	         -0.00000003	         -0.00000000	          0.00000000	          0.00000000	          0.00000000	          0.00000000	          0.01744371	          0.00000000	          0.00000000	         -0.00000000	          0.00000000	
          3.21500000	        -58.51893177	        532.88667247	         27.90009475	         -0.41132857	          0.00000000	          0.00428168	          0.00000002	          0.00000000	          0.00000000	          0.00000000	          0.00000000	          0.00000000	          0.00000000	          0.11531968	          0.00000000	          0.00000000	         -0.00000000	          0.00000000	
          3.22000000	        -60.88766843	        553.03211328	         29.85062918	         -0.40919573	          0.00000000	          0.00388375	          0.00000002	          0.00000006	          0.00000001	          0.00000000	          0.00000000	          0.00000000	          0.00000000	          0.23082973	          0.00000000	          0.00000000	         -0.00000000	          0.00000000	
          3.22500000	        -63.20235600	        574.44051795	         31.49315808	         -0.40731371	          0.00000000	          0.00356344	          0.00000003	          0.00000014	          0.00000002	          0.00000000	          0.00000000	          0.00000000	          0.00000000	          0.35861052	          0.00000000	          0.00000000	         -0.00000000	          0.00000000	
